<?xml version="1.0" encoding="utf-8"?>
<svg viewBox="0 0 120 120" xmlns="http://www.w3.org/2000/svg" xmlns:bx="https://boxy-svg.com">
  <defs>
    <bx:guide x="198.02536542150807" y="251.8749887531153" angle="0"/>
    <bx:guide x="213.52972984196475" y="246.59690724827897" angle="0"/>
  </defs>
  <g transform="matrix(1, 0, 0, 1, -131.804001, -55.495995)">
    <rect x="131.804" y="55.496" width="120" height="120" style="stroke: rgb(255, 255, 255); fill: rgb(0, 164, 122);"/>
  </g>
  <g transform="matrix(1.887683, 0, 0, 1.887683, -102.602592, -16.879353)">
    <g id="Original" transform="matrix(1, 0, 0, 1, 10.051242, 19.394995)">
      <path class="cls-1" d="M427.48,173V152.12c1.53-1.09,3-2.87,3-4.89a6,6,0,0,0-3.74-5.55v5.5L426,148h-2.72l-.69-.81v-5.42a6,6,0,0,0-3.55,5.47c0,2,1.46,3.76,3,4.85V173c-1.51,1.09-3,2.85-3,4.85a6,6,0,0,0,3.55,5.47v-5.42l.69-.82H426l.79.82v5.5a6,6,0,0,0,3.74-5.55C430.5,175.86,429,174.08,427.48,173Z" transform="translate(-353.47 -141.05)" style="stroke-width: 0.85px; fill: rgb(255, 255, 255); stroke: rgb(255, 255, 255);"/>
      <polygon class="cls-1" points="84.07 0.85 83.01 0.85 81.96 0.85 80.58 7.75 81.8 9.39 81.8 23.66 83.01 23.66 84.22 23.66 84.22 9.39 85.44 7.75 84.07 0.85" style="stroke-width: 0.85px; fill: rgb(255, 255, 255); stroke: rgb(255, 255, 255);"/>
      <path class="cls-1" d="M436.53,162.82c-2,0-3.7,1.07-3.7,3.24v14.18c0,2.17,1.65,3.24,3.7,3.24s3.7-1.07,3.7-3.24V166.06C440.23,163.89,438.57,162.82,436.53,162.82Z" transform="translate(-353.47 -141.05)" style="stroke-width: 0.85px; fill: rgb(255, 255, 255); stroke: rgb(255, 255, 255);"/>
    </g>
  </g>
</svg>