<?xml version="1.0" encoding="utf-8"?>
<svg viewBox="0 0 120 120" style="shape-rendering: geometricprecision;" xmlns="http://www.w3.org/2000/svg" xmlns:bx="https://boxy-svg.com">
  <defs>
    <bx:guide x="198.02536542150807" y="251.8749887531153" angle="0"/>
    <bx:guide x="213.52972984196475" y="246.59690724827897" angle="0"/>
  </defs>
  <rect width="120" height="120" style="stroke: rgb(255, 255, 255); fill: rgb(6, 141, 194);"/>
  <g transform="matrix(1, 0, 0, 1, 595.841736, 162.0383)">
    <g transform="matrix(0.084351, 0, 0, 0.084351, -573.048645, -142.724792)">
      <path style="opacity: 0.972; fill: rgb(255, 255, 255);" d="M 948.5,360.5 C 948.5,378.167 948.5,395.833 948.5,413.5C 934.19,496.978 887.857,554.811 809.5,587C 791.567,593.141 772.9,597.141 753.5,599C 696.167,599.667 638.833,599.667 581.5,599C 571.049,594.32 568.049,586.653 572.5,576C 572.167,575.667 571.833,575.333 571.5,575C 574.876,571.644 578.876,569.31 583.5,568C 639.833,567.667 696.167,567.333 752.5,567C 828.875,556.495 880.708,515.661 908,444.5C 926.488,379.947 915.154,321.614 874,269.5C 868.271,263.603 862.438,257.936 856.5,252.5C 812.125,213.466 759.791,199.299 699.5,210C 687.928,213.097 676.761,216.264 666,219.5C 659.145,218.982 654.145,215.649 651,209.5C 632.638,129.239 584.305,73.906 506,43.5C 505.667,43.8333 505.333,44.1667 505,44.5C 501.266,42.2536 497.266,40.587 493,39.5C 491.098,39.1849 489.098,39.1849 487,39.5C 486.395,37.5188 485.395,37.1854 484,38.5C 481.566,36.9767 478.899,35.9767 476,35.5C 475.667,35.8333 475.333,36.1667 475,36.5C 399.729,24.2214 334.563,43.3881 279.5,94C 250.242,122.992 230.075,157.492 219,197.5C 216.632,202.435 212.799,205.602 207.5,207C 197.803,207.707 188.137,208.707 178.5,210C 169.758,211.526 161.092,214.026 152.5,217.5C 104.923,234.489 69.7559,267.489 47,316.5C 24.9104,374.774 29.5771,430.774 61,484.5C 94.6026,533.4 141.103,560.9 200.5,567C 256.5,567.333 312.5,567.667 368.5,568C 378.646,572.415 381.813,579.915 378,590.5C 375.975,594.237 373.308,596.57 370,597.5C 367.384,598.653 364.718,599.653 362,600.5C 310,600.5 258,600.5 206,600.5C 140.803,595.746 87.3031,568.412 45.5,518.5C 39.7736,509.793 34.107,501.126 28.5,492.5C 7.26457,454.726 -2.06876,414.226 0.5,371C 6.80924,305.253 37.8092,251.919 93.5,211C 123.81,191.838 156.81,179.671 192.5,174.5C 222.09,91.0975 279.756,35.9309 365.5,9C 457.77,-13.449 539.103,6.88432 609.5,70C 641.514,101.839 664.514,139.339 678.5,182.5C 760.882,162.247 832.049,181.914 892,241.5C 916.526,268.207 933.526,299.207 943,334.5C 944.923,343.287 946.756,351.954 948.5,360.5 Z"/>
    </g>
    <g transform="matrix(0.084351, 0, 0, 0.084351, -573.048645, -142.724792)">
      <path style="opacity: 0.971; fill: rgb(255, 255, 255);" d="M 421.5,78.5 C 430.341,77.0061 438.174,79.0061 445,84.5C 451.357,96.0947 448.524,104.595 436.5,110C 379.167,111.266 337.001,137.432 310,188.5C 306.875,195.996 304.208,203.663 302,211.5C 300.92,213.996 299.586,216.33 298,218.5C 297.667,218.167 297.333,217.833 297,217.5C 289.051,223.471 281.385,222.805 274,215.5C 269.611,208.046 269.444,200.88 273.5,194C 292.797,137.736 331.797,101.07 390.5,84C 400.87,81.5473 411.203,79.714 421.5,78.5 Z"/>
    </g>
    <g transform="matrix(0.084351, 0, 0, 0.084351, -573.048645, -142.724792)">
      <path style="opacity: 0.012; fill: rgb(255, 255, 255);" d="M 152.5,217.5 C 153.833,218.167 153.833,218.167 152.5,217.5 Z"/>
    </g>
    <g transform="matrix(0.084351, 0, 0, 0.084351, -573.048645, -142.724792)">
      <path style="opacity: 0.012; fill: rgb(255, 255, 255);" d="M 856.5,252.5 C 855.833,253.167 855.833,253.167 856.5,252.5 Z"/>
    </g>
    <g transform="matrix(0.084351, 0, 0, 0.084351, -573.048645, -142.724792)">
      <path style="opacity: 0.971; fill: rgb(255, 255, 255);" d="M 864.5,888.5 C 864.167,888.5 863.833,888.5 863.5,888.5C 836.448,880.919 818.781,864.419 810.5,839C 788.503,838.5 766.503,838.333 744.5,838.5C 737.342,863.824 721.009,879.99 695.5,887C 663.961,891.613 639.794,881.113 623,855.5C 620.131,849.753 617.797,843.753 616,837.5C 592.589,838.718 569.256,838.718 546,837.5C 532.235,831.059 523.568,820.393 520,805.5C 519.168,696.597 519.335,587.764 520.5,479C 487.835,478.5 455.168,478.333 422.5,478.5C 422.667,549.501 422.5,620.501 422,691.5C 418.628,710.358 408.128,721.358 390.5,724.5C 368.869,725.156 347.202,725.823 325.5,726.5C 323.419,733.995 320.252,740.995 316,747.5C 297.765,770.706 273.931,779.206 244.5,773C 224.093,766.592 209.259,753.758 200,734.5C 198.855,731.568 198.022,728.568 197.5,725.5C 175.167,725.5 152.833,725.5 130.5,725.5C 122.828,752.017 105.828,768.184 79.5,774C 40.735,777.952 14.735,761.619 1.5,725C -3.78356,693.882 6.8831,669.549 33.5,652C 67.5904,635.317 96.757,641.484 121,670.5C 125.823,677.466 128.99,685.132 130.5,693.5C 152.833,693.5 175.167,693.5 197.5,693.5C 203.052,671.726 216.719,656.226 238.5,647C 276.572,636.627 304.739,648.793 323,683.5C 323.943,686.824 324.776,690.157 325.5,693.5C 345.503,693.667 365.503,693.5 385.5,693C 387.959,692.276 388.959,690.943 388.5,689C 390.495,619.047 391.161,548.881 390.5,478.5C 365.164,478.667 339.831,478.5 314.5,478C 304.185,473.085 301.352,464.918 306,453.5C 307.938,450.894 310.438,449.061 313.5,448C 367.289,446.842 421.123,446.342 475,446.5C 528.877,446.342 582.711,446.842 636.5,448C 643.322,450.636 646.655,455.636 646.5,463C 645.927,470.244 642.26,475.244 635.5,478C 607.835,478.5 580.169,478.667 552.5,478.5C 552.333,586.834 552.5,695.167 553,803.5C 554.491,805.004 556.324,805.837 558.5,806C 577.83,806.5 597.164,806.667 616.5,806.5C 625.533,774.865 646.866,758.198 680.5,756.5C 713.862,757.87 735.195,774.537 744.5,806.5C 766.503,806.667 788.503,806.5 810.5,806C 822.416,770.904 847.416,754.57 885.5,757C 916.869,763.703 935.369,782.869 941,814.5C 942.904,843.196 931.737,865.029 907.5,880C 901.883,883.317 895.883,885.65 889.5,887C 880.99,887.171 872.657,887.671 864.5,888.5 Z M 60.5,675.5 C 84.8298,674.444 98.4965,685.778 101.5,709.5C 99.0514,730.092 87.5514,741.426 67,743.5C 43.1408,740.093 32.1408,726.426 34,702.5C 37.0137,687.654 45.847,678.654 60.5,675.5 Z M 255.5,675.5 C 282.933,675.429 296.1,688.762 295,715.5C 288.761,736.317 274.595,745.15 252.5,742C 236.625,736.783 228.292,725.783 227.5,709C 229.098,690.622 238.431,679.456 255.5,675.5 Z M 672.5,788.5 C 677.156,788.765 681.656,788.765 686,788.5C 706.195,793.52 715.695,806.52 714.5,827.5C 706.045,852.949 689.045,861.116 663.5,852C 645.908,839.132 642.075,822.965 652,803.5C 657.329,796.323 664.162,791.323 672.5,788.5 Z M 867.5,788.5 C 886.931,786.305 900.431,794.305 908,812.5C 911.546,827.198 907.38,839.698 895.5,850C 882.673,856.899 869.673,857.233 856.5,851C 840.178,837.532 837.011,821.365 847,802.5C 850.519,798.611 854.019,795.444 857.5,793C 860.893,791.38 864.226,789.88 867.5,788.5 Z"/>
    </g>
    <g transform="matrix(0.084351, 0, 0, 0.084351, -573.048645, -142.724792)">
      <path style="opacity: 0.012; fill: rgb(255, 255, 255);" d="M 28.5,492.5 C 27.8333,493.167 27.8333,493.167 28.5,492.5 Z"/>
    </g>
  </g>
</svg>