<?xml version="1.0" encoding="utf-8"?>
<svg viewBox="0 0 120 120" xmlns="http://www.w3.org/2000/svg" xmlns:bx="https://boxy-svg.com">
  <defs>
    <bx:guide x="198.02536542150807" y="251.8749887531153" angle="0"/>
    <bx:guide x="213.52972984196475" y="246.59690724827897" angle="0"/>
  </defs>
  <rect width="120" height="120" style="stroke: rgb(255, 255, 255); fill: rgb(0, 164, 122);"/>
  <line style="fill: rgb(216, 216, 216); stroke: rgb(255, 253, 253); stroke-width: 7px;" x1="10.1" y1="57" x2="108.6" y2="57"/>
  <g transform="matrix(1, 0, 0, 1, 0.76841, 0.128068)">
    <rect x="90.594" y="24.845" width="13.704" height="15.113" style="stroke-linecap: round; stroke-miterlimit: 1; stroke-linejoin: round; stroke: rgb(255, 253, 253); paint-order: stroke; fill: rgb(255, 255, 255);"/>
    <line style="fill: rgb(216, 216, 216); stroke: rgb(255, 253, 253); stroke-width: 2px; transform-origin: 97.767px 48.456px;" x1="97.765" y1="56.544" x2="97.77" y2="40.369"/>
  </g>
  <g transform="matrix(1, 0, 0, 1, -34.436398, 0.155001)">
    <rect x="90.594" y="24.845" width="13.704" height="15.113" style="stroke-linecap: round; stroke-miterlimit: 1; stroke-linejoin: round; stroke: rgb(255, 253, 253); paint-order: stroke; fill: rgb(255, 255, 255);"/>
    <line style="fill: rgb(216, 216, 216); stroke: rgb(255, 253, 253); stroke-width: 2px; transform-origin: 97.767px 48.456px;" x1="97.765" y1="56.544" x2="97.77" y2="40.369"/>
  </g>
  <g transform="matrix(1, 0, 0, 1, -69.142906, 0.155001)">
    <rect x="90.594" y="24.845" width="13.704" height="15.113" style="stroke-linecap: round; stroke-miterlimit: 1; stroke-linejoin: round; stroke: rgb(255, 253, 253); paint-order: stroke; fill: rgb(255, 255, 255);"/>
    <line style="fill: rgb(216, 216, 216); stroke: rgb(255, 253, 253); stroke-width: 2px; transform-origin: 97.767px 48.456px;" x1="97.765" y1="56.544" x2="97.77" y2="40.369"/>
  </g>
  <g transform="matrix(-1, 0, 0, -1, -17.659443, 34.154999)" style="transform-origin: 97.446px 40.6945px;">
    <rect x="90.594" y="24.845" width="13.704" height="15.113" style="stroke-linecap: round; stroke-miterlimit: 1; stroke-linejoin: round; stroke: rgb(255, 253, 253); paint-order: stroke; fill: rgb(255, 255, 255);"/>
    <line style="fill: rgb(216, 216, 216); stroke: rgb(255, 253, 253); stroke-width: 2px; transform-origin: 97.767px 48.456px;" x1="97.765" y1="56.544" x2="97.77" y2="40.369"/>
  </g>
  <g transform="matrix(-1, 0, 0, -1, -55.823799, 34.153999)" style="transform-origin: 97.446px 40.695px;">
    <rect x="90.594" y="24.845" width="13.704" height="15.113" style="stroke-linecap: round; stroke-miterlimit: 1; stroke-linejoin: round; stroke: rgb(255, 253, 253); paint-order: stroke; fill: rgb(255, 255, 255);"/>
    <line style="fill: rgb(216, 216, 216); stroke: rgb(255, 253, 253); stroke-width: 2px; transform-origin: 97.767px 48.456px;" x1="97.765" y1="56.544" x2="97.77" y2="40.369"/>
  </g>
</svg>