<?xml version="1.0" encoding="utf-8"?>
<svg viewBox="0 0 120 120" style="shape-rendering: geometricprecision;" xmlns="http://www.w3.org/2000/svg" xmlns:bx="https://boxy-svg.com">
  <defs>
    <bx:guide x="198.02536542150807" y="251.8749887531153" angle="0"/>
    <bx:guide x="213.52972984196475" y="246.59690724827897" angle="0"/>
  </defs>
  <g transform="matrix(1, 0, 0, 1, -28.580999, -47.257)">
    <rect width="120" height="120" style="stroke: rgb(255, 255, 255); fill: rgb(236, 102, 8);" x="28.581" y="47.257"/>
    <g transform="matrix(0.700871, 0, 0, 0.700871, -137.601212, -0.323315)">
      <g transform="matrix(0.368196, 0, 0, 0.348986, 229.373016, 65.542702)" style="">
        <path style="opacity: 1; fill: rgb(255, 255, 255);" d="M 227.5,126.5 C 266.353,123.937 303.02,131.604 337.5,149.5C 338.663,151.55 338.496,153.55 337,155.5C 330.627,161.873 324.294,168.206 318,174.5C 269.127,147.282 218.294,143.116 165.5,162C 110.276,186.608 74.7756,228.108 59,286.5C 57.8709,292.479 56.8709,298.479 56,304.5C 55.7639,283.347 59.7639,263.014 68,243.5C 99.5023,175.189 152.669,136.189 227.5,126.5 Z"/>
      </g>
      <g transform="matrix(0.368196, 0, 0, 0.348986, 229.373016, 65.542702)" style="">
        <path style="opacity: 1; fill: rgb(255, 255, 255);" d="M 360.5,139.5 C 362.722,139.178 364.556,139.845 366,141.5C 366.388,144.685 365.721,147.685 364,150.5C 332.854,206.792 301.187,262.792 269,318.5C 272.392,337.334 266.892,352.834 252.5,365C 229.997,377.883 210.497,374.383 194,354.5C 181.987,330.72 186.82,311.22 208.5,296C 213.81,293.119 219.477,291.452 225.5,291C 270.052,239.957 315.052,189.457 360.5,139.5 Z"/>
      </g>
      <g transform="matrix(0.368196, 0, 0, 0.348986, 229.373016, 65.542702)" style="">
        <path style="opacity: 1; fill: rgb(255, 255, 255);" d="M 362.5,167.5 C 363.873,167.343 365.207,167.51 366.5,168C 414.76,207.186 440.427,257.853 443.5,320C 427.883,321.42 412.216,321.92 396.5,321.5C 397.53,273.583 381.363,232.583 348,198.5C 347.333,196.833 347.333,195.167 348,193.5C 353.099,184.967 357.932,176.301 362.5,167.5 Z"/>
      </g>
    </g>
  </g>
</svg>