<?xml version="1.0" encoding="utf-8"?>
<svg viewBox="0 0 120 85" xmlns="http://www.w3.org/2000/svg">
  <g id="Original-2" data-name="Original" transform="matrix(1.317234, 0, 0, 1.282741, -0.56641, -0.538752)" style="">
    <rect class="cls-1" x="0.43" y="0.43" width="91.1" height="65.88" style="stroke: rgb(0, 85, 124); stroke-miterlimit: 10; stroke-width: 0.85px; fill: rgb(87, 92, 118);"/>
    <rect class="cls-2" x="4.23" y="0.43" width="83.5" height="60.8" style="fill: rgb(216, 220, 231);"/>
    <polygon class="cls-3" points="83.16 21.37 83.16 10.04 86.5 10.04 86.5 0.42 5.39 0.43 5.39 60.07 86.54 60.07 86.54 21.37 83.16 21.37" style="fill: rgb(87, 92, 118);"/>
    <polygon class="cls-4" points="86.54 10.48 86.54 12.46 86.2 12.46 86.2 11.66 83.48 11.66 83.48 11.28 86.2 11.28 86.2 10.48 86.54 10.48 86.54 10.48" style="fill-rule: evenodd; fill: rgb(87, 92, 118);"/>
    <path class="cls-4" d="M434.29,167.19a.85.85,0,0,1,.28-.71,1.35,1.35,0,0,1,.9-.23h1a1,1,0,0,1,.73.24.9.9,0,0,1,.27.7.93.93,0,0,1-.27.72,1.05,1.05,0,0,1-.73.24h-1a1.43,1.43,0,0,1-.9-.23.89.89,0,0,1-.28-.73Zm.33,0a.47.47,0,0,0,.17.43,1.09,1.09,0,0,0,.67.14h1a.7.7,0,0,0,.49-.14.55.55,0,0,0,.17-.43.52.52,0,0,0-.17-.41.7.7,0,0,0-.49-.15h-1a1.1,1.1,0,0,0-.67.15.45.45,0,0,0-.17.41Z" transform="translate(-350.87 -153.72)" style="fill-rule: evenodd; fill: rgb(87, 92, 118);"/>
    <path class="cls-4" d="M435.47,168.48h1.95v.39h-2a1.1,1.1,0,0,0-.67.15.47.47,0,0,0-.17.42.48.48,0,0,0,.17.43,1.15,1.15,0,0,0,.67.15h2v.38h-1.95a1.43,1.43,0,0,1-.9-.23.89.89,0,0,1-.28-.73.87.87,0,0,1,.28-.72,1.41,1.41,0,0,1,.9-.24Z" transform="translate(-350.87 -153.72)" style="fill-rule: evenodd; fill: rgb(87, 92, 118);"/>
    <path class="cls-4" d="M436.57,172.5v-.41l.31,0A.51.51,0,0,0,437,172a.27.27,0,0,0,.09-.15.67.67,0,0,0,0-.18.56.56,0,0,0-.1-.35.29.29,0,0,0-.14-.11l-.2-.06a2.63,2.63,0,0,0-.43,0h-.82a1.21,1.21,0,0,0-.71.16.54.54,0,0,0-.13.39.39.39,0,0,0,.17.35.76.76,0,0,0,.47.12v.4a1.06,1.06,0,0,1-.73-.22.8.8,0,0,1-.24-.64,1,1,0,0,1,.16-.61,1.31,1.31,0,0,1,1.05-.34h.87a1.25,1.25,0,0,1,.88.26,1,1,0,0,1,.23.71.76.76,0,0,1-.23.62,1.11,1.11,0,0,1-.68.18Z" transform="translate(-350.87 -153.72)" style="fill-rule: evenodd; fill: rgb(87, 92, 118);"/>
    <polygon class="cls-4" points="83.48 19.06 86.54 19.06 86.54 19.45 85.22 19.45 85.22 20.51 86.54 20.51 86.54 20.9 83.48 20.9 83.48 20.51 84.88 20.51 84.88 19.45 83.48 19.45 83.48 19.06 83.48 19.06" style="fill-rule: evenodd; fill: rgb(87, 92, 118);"/>
    <rect class="cls-5" x="8.86" y="10.04" width="74.3" height="46.68" style="fill: rgb(216, 220, 231);"/>
    <rect class="cls-6" x="8.79" y="2.16" width="8.59" height="2.29" style="fill: rgb(216, 220, 231);"/>
    <rect class="cls-7" x="0.43" y="0.43" width="91.1" height="65.88" style="fill: none; stroke-miterlimit: 10; stroke-width: 0.85px; stroke: rgb(216, 220, 231);"/>
  </g>
</svg>