<?xml version="1.0" encoding="utf-8"?>
<svg viewBox="0 0 360 60" xmlns="http://www.w3.org/2000/svg" xmlns:bx="https://boxy-svg.com">
  <defs>
    <bx:guide x="198.02536542150807" y="251.8749887531153" angle="0"/>
    <bx:guide x="213.52972984196475" y="246.59690724827897" angle="0"/>
  </defs>
  <desc>Created with Fabric.js 3.6.6</desc>
  <rect x="168.99" y="1.5" width="128.172" height="57.2" style="fill: rgb(236, 102, 8); stroke: rgb(255, 255, 255); stroke-opacity: 0;"/>
  <g transform="matrix(-0.78, 0, 0, 0.63, 119.31118, 30.135302)" id="Capa_1">
    <polygon style="stroke: none; stroke-width: 1; stroke-dasharray: none; stroke-linecap: butt; stroke-dashoffset: 0; stroke-linejoin: miter; stroke-miterlimit: 4; fill: rgb(13,34,64); fill-rule: nonzero; opacity: 1;" points="-132.4,45.42 -132.4,45.22 150.69,45.22 150.69,-45.42 -132.4,-45.42 -150.69,-1.27 "/>
  </g>
  <g transform="matrix(0.831281, 0, 0, 0.831281, 91.998741, 28.685289)">
    <g style="">
      <g transform="matrix(1 0 0 1 -17.92 11.36)" id="Capa_1">
        <path style="stroke: none; stroke-width: 1; stroke-dasharray: none; stroke-linecap: butt; stroke-dashoffset: 0; stroke-linejoin: miter; stroke-miterlimit: 4; fill: rgb(255,255,255); fill-rule: nonzero; opacity: 1;" transform=" translate(-130.47, -80.43)" d="M 129.116 81.401 c 0 0.89 0.666 1.25 1.485 1.25 c 0.891 0 1.224 -0.432 1.224 -0.882 c 0 -0.45 -0.244 -0.629 -0.478 -0.72 c -0.405 -0.153 -0.936 -0.27 -1.746 -0.485 c -0.989 -0.261 -1.278 -0.865 -1.278 -1.477 c 0 -1.16 1.08 -1.709 2.133 -1.709 c 1.214 0 2.232 0.648 2.232 1.862 h -1.017 c -0.063 -0.747 -0.558 -1.026 -1.259 -1.026 c -0.478 0 -1.071 0.162 -1.071 0.756 c 0 0.405 0.279 0.629 0.694 0.747 c 0.081 0.029 1.385 0.361 1.682 0.452 c 0.766 0.225 1.134 0.881 1.134 1.493 c 0 1.295 -1.161 1.819 -2.322 1.819 c -1.332 0 -2.412 -0.631 -2.43 -2.079 H 129.116 z" stroke-linecap="round"/>
      </g>
      <g transform="matrix(1 0 0 1 -5.65 11.36)" id="Capa_1">
        <path style="stroke: none; stroke-width: 1; stroke-dasharray: none; stroke-linecap: butt; stroke-dashoffset: 0; stroke-linejoin: miter; stroke-miterlimit: 4; fill: rgb(255,255,255); fill-rule: nonzero; opacity: 1;" transform=" translate(-142.75, -80.43)" d="M 145.539 80.429 c 0 1.673 -1.044 3.051 -2.79 3.051 c -1.737 0 -2.798 -1.378 -2.798 -3.051 c 0 -1.657 1.061 -3.051 2.798 -3.051 C 144.495 77.378 145.539 78.772 145.539 80.429 z M 140.977 80.429 c 0 1.124 0.531 2.221 1.773 2.221 c 1.242 0 1.764 -1.097 1.764 -2.221 c 0 -1.117 -0.522 -2.215 -1.764 -2.215 C 141.508 78.215 140.977 79.312 140.977 80.429 z" stroke-linecap="round"/>
      </g>
      <g transform="matrix(1 0 0 1 6.59 11.36)" id="Capa_1">
        <path style="stroke: none; stroke-width: 1; stroke-dasharray: none; stroke-linecap: butt; stroke-dashoffset: 0; stroke-linejoin: miter; stroke-miterlimit: 4; fill: rgb(255,255,255); fill-rule: nonzero; opacity: 1;" transform=" translate(-154.99, -80.43)" d="M 152.991 77.522 h 1.044 v 4.949 h 2.952 v 0.865 h -3.996 V 77.522 z" stroke-linecap="round"/>
      </g>
      <g transform="matrix(1 0 0 1 18.15 11.43)" id="Capa_1">
        <path style="stroke: none; stroke-width: 1; stroke-dasharray: none; stroke-linecap: butt; stroke-dashoffset: 0; stroke-linejoin: miter; stroke-miterlimit: 4; fill: rgb(255,255,255); fill-rule: nonzero; opacity: 1;" transform=" translate(-166.54, -80.5)" d="M 164.15 77.522 h 1.008 v 3.393 c 0 0.782 0.072 1.7 1.368 1.7 c 1.331 0 1.386 -0.918 1.386 -1.7 v -3.393 h 1.026 v 3.725 c 0 1.493 -0.972 2.232 -2.412 2.232 c -1.44 0 -2.376 -0.739 -2.376 -2.232 V 77.522 z" stroke-linecap="round"/>
      </g>
      <g transform="matrix(1 0 0 1 30.04 11.36)" id="Capa_1">
        <path style="stroke: none; stroke-width: 1; stroke-dasharray: none; stroke-linecap: butt; stroke-dashoffset: 0; stroke-linejoin: miter; stroke-miterlimit: 4; fill: rgb(255,255,255); fill-rule: nonzero; opacity: 1;" transform=" translate(-178.43, -80.43)" d="M 176.066 77.522 h 4.734 v 0.873 h -1.854 v 4.941 h -1.026 v -4.941 h -1.854 V 77.522 z" stroke-linecap="round"/>
      </g>
      <g transform="matrix(1 0 0 1 40.11 11.36)" id="Capa_1">
        <path style="stroke: none; stroke-width: 1; stroke-dasharray: none; stroke-linecap: butt; stroke-dashoffset: 0; stroke-linejoin: miter; stroke-miterlimit: 4; fill: rgb(255,255,255); fill-rule: nonzero; opacity: 1;" transform=" translate(-188.51, -80.43)" d="M 187.998 77.522 h 1.027 v 5.814 h -1.027 V 77.522 z" stroke-linecap="round"/>
      </g>
      <g transform="matrix(1 0 0 1 50.88 11.36)" id="Capa_1">
        <path style="stroke: none; stroke-width: 1; stroke-dasharray: none; stroke-linecap: butt; stroke-dashoffset: 0; stroke-linejoin: miter; stroke-miterlimit: 4; fill: rgb(255,255,255); fill-rule: nonzero; opacity: 1;" transform=" translate(-199.28, -80.43)" d="M 202.056 80.429 c 0 1.673 -1.026 3.051 -2.772 3.051 c -1.764 0 -2.789 -1.378 -2.789 -3.051 c 0 -1.657 1.026 -3.051 2.789 -3.051 C 201.03 77.378 202.056 78.772 202.056 80.429 z M 197.502 80.429 c 0 1.124 0.522 2.221 1.782 2.221 c 1.26 0 1.764 -1.097 1.764 -2.221 c 0 -1.117 -0.504 -2.215 -1.764 -2.215 C 198.024 78.215 197.502 79.312 197.502 80.429 z" stroke-linecap="round"/>
      </g>
      <g transform="matrix(1 0 0 1 63.46 11.36)" id="Capa_1">
        <path style="stroke: none; stroke-width: 1; stroke-dasharray: none; stroke-linecap: butt; stroke-dashoffset: 0; stroke-linejoin: miter; stroke-miterlimit: 4; fill: rgb(255,255,255); fill-rule: nonzero; opacity: 1;" transform=" translate(-211.86, -80.43)" d="M 209.49 77.522 h 1.061 l 2.664 4.283 h 0.036 v -4.283 h 0.971 v 5.814 h -1.08 l -2.664 -4.276 h -0.018 v 4.276 h -0.971 V 77.522 z" stroke-linecap="round"/>
      </g>
      <g transform="matrix(1 0 0 1 75.58 11.36)" id="Capa_1">
        <path style="stroke: none; stroke-width: 1; stroke-dasharray: none; stroke-linecap: butt; stroke-dashoffset: 0; stroke-linejoin: miter; stroke-miterlimit: 4; fill: rgb(255,255,255); fill-rule: nonzero; opacity: 1;" transform=" translate(-223.98, -80.43)" d="M 222.628 81.401 c 0 0.89 0.667 1.25 1.458 1.25 c 0.901 0 1.243 -0.432 1.243 -0.882 c 0 -0.45 -0.234 -0.629 -0.486 -0.72 c -0.397 -0.153 -0.936 -0.27 -1.728 -0.485 c -1.008 -0.261 -1.296 -0.865 -1.296 -1.477 c 0 -1.16 1.08 -1.709 2.124 -1.709 c 1.224 0 2.232 0.648 2.232 1.862 h -1.008 c -0.054 -0.747 -0.558 -1.026 -1.26 -1.026 c -0.468 0 -1.061 0.162 -1.061 0.756 c 0 0.405 0.27 0.629 0.701 0.747 c 0.072 0.029 1.368 0.361 1.656 0.452 c 0.792 0.225 1.152 0.881 1.152 1.493 c 0 1.295 -1.152 1.819 -2.304 1.819 c -1.35 0 -2.429 -0.631 -2.447 -2.079 H 222.628 z" stroke-linecap="round"/>
      </g>
      <g transform="matrix(1 0 0 1 -13.63 -3.33)" id="Capa_1">
        <polygon style="stroke: none; stroke-width: 1; stroke-dasharray: none; stroke-linecap: butt; stroke-dashoffset: 0; stroke-linejoin: miter; stroke-miterlimit: 4; fill: rgb(255,255,255); fill-rule: nonzero; opacity: 1;" points="-0.16,-1.52 0.5,-3.91 0.82,-5.12 7.29,-5.12 7.97,-7.57 -3.88,-7.57 -4.73,-4.4 -7.97,7.57 -2.67,7.57 -0.89,1.01 5.46,1.01 6.13,-1.52 "/>
      </g>
      <g transform="matrix(1 0 0 1 0.17 -3.34)" id="Capa_1">
        <polygon style="stroke: none; stroke-width: 1; stroke-dasharray: none; stroke-linecap: butt; stroke-dashoffset: 0; stroke-linejoin: miter; stroke-miterlimit: 4; fill: rgb(255,255,255); fill-rule: nonzero; opacity: 1;" points="5.47,0.99 6.15,-1.47 -0.11,-1.47 0.25,-2.74 0.88,-5.11 7.3,-5.11 7.95,-7.56 -3.87,-7.56 -5.04,-3.18 -7.95,7.56 4.01,7.56 4.68,5.11 -1.91,5.11 -0.8,0.99 "/>
      </g>
      <g transform="matrix(1 0 0 1 15.21 -3.34)" id="Capa_1">
        <path style="stroke: none; stroke-width: 1; stroke-dasharray: none; stroke-linecap: butt; stroke-dashoffset: 0; stroke-linejoin: miter; stroke-miterlimit: 4; fill: rgb(255,255,255); fill-rule: nonzero; opacity: 1;" transform=" translate(-163.61, -65.73)" d="M 171.493 64.518 l 0.9 -3.311 c 0.036 -0.117 0.072 -0.243 0.108 -0.36 c 0 -0.117 0.018 -0.235 0.018 -0.343 c 0.018 -0.117 0.054 -0.224 0.054 -0.324 c 0 -0.09 0 -0.18 -0.036 -0.279 c 0 -0.081 -0.036 -0.171 -0.036 -0.261 c -0.036 -0.09 -0.072 -0.171 -0.09 -0.243 c -0.018 -0.054 -0.054 -0.117 -0.09 -0.19 c -0.036 -0.072 -0.072 -0.144 -0.126 -0.207 c -0.054 -0.063 -0.126 -0.126 -0.198 -0.198 c -0.071 -0.063 -0.143 -0.135 -0.216 -0.18 c -0.072 -0.045 -0.162 -0.099 -0.253 -0.144 c -0.072 -0.054 -0.162 -0.081 -0.252 -0.108 c -0.108 -0.018 -0.198 -0.045 -0.287 -0.072 c -0.108 -0.027 -0.216 -0.045 -0.306 -0.054 c -0.108 -0.018 -0.216 -0.027 -0.306 -0.036 c -0.108 -0.009 -0.216 -0.009 -0.306 -0.009 h -11.34 l -1.458 5.417 l -2.628 9.648 h 5.31 l 1.475 -5.382 h 6.138 c 0.108 0 0.216 -0.009 0.359 -0.018 c 0.108 0 0.234 -0.009 0.324 -0.045 c 0.109 -0.018 0.253 -0.036 0.361 -0.063 c 0.108 -0.036 0.252 -0.063 0.378 -0.108 c 0.09 -0.027 0.162 -0.063 0.27 -0.117 c 0.108 -0.045 0.198 -0.09 0.288 -0.134 c 0.072 -0.045 0.144 -0.09 0.235 -0.154 c 0.09 -0.054 0.162 -0.099 0.27 -0.171 c 0.054 -0.045 0.126 -0.117 0.216 -0.18 c 0.072 -0.072 0.144 -0.144 0.18 -0.216 c 0.072 -0.054 0.144 -0.126 0.216 -0.206 c 0.072 -0.081 0.108 -0.171 0.162 -0.252 c 0.054 -0.09 0.126 -0.171 0.162 -0.261 c 0.072 -0.099 0.108 -0.199 0.144 -0.316 c 0.054 -0.09 0.108 -0.198 0.143 -0.324 c 0.036 -0.126 0.072 -0.234 0.108 -0.351 L 171.493 64.518 z M 166.13 64.545 c -0.036 0.045 -0.036 0.099 -0.072 0.135 c 0 0.054 -0.036 0.099 -0.036 0.144 c -0.036 0.036 -0.072 0.09 -0.108 0.135 c -0.054 0.045 -0.09 0.099 -0.108 0.135 c -0.036 0.045 -0.072 0.09 -0.126 0.126 c -0.054 0.045 -0.09 0.081 -0.162 0.099 c -0.036 0.018 -0.072 0.036 -0.108 0.054 c -0.054 0.009 -0.108 0.018 -0.144 0.018 h -3.168 l 0.396 -1.413 l 0.882 -3.293 h 3.168 c 0.036 0 0.072 0.009 0.108 0.027 c 0.054 0.009 0.072 0.027 0.108 0.036 c 0.036 0.018 0.054 0.045 0.09 0.063 c 0.036 0.027 0.054 0.063 0.054 0.09 c 0.018 0.027 0.036 0.063 0.072 0.108 c 0.018 0.045 0.018 0.081 0.018 0.126 c 0 0.045 0 0.081 0 0.135 c 0 0.054 0 0.099 -0.018 0.162 l -0.757 2.772 L 166.13 64.545 z" stroke-linecap="round"/>
      </g>
      <g transform="matrix(1 0 0 1 69.55 -3.33)" id="Capa_1">
        <polygon style="stroke: none; stroke-width: 1; stroke-dasharray: none; stroke-linecap: butt; stroke-dashoffset: 0; stroke-linejoin: miter; stroke-miterlimit: 4; fill: rgb(255,255,255); fill-rule: nonzero; opacity: 1;" points="4.95,-7.57 0.88,-0.94 -0.31,1.04 -0.38,-0.83 -0.67,-7.57 -7.54,-7.57 -9.5,-0.41 -11.65,7.55 -9.34,7.55 -7.15,-0.48 -6.08,-4.38 -5.89,-0.53 -5.45,7.55 -1.76,7.55 3.51,-1.18 5.53,-4.51 4.64,-1.3 2.25,7.57 7.54,7.57 10.19,-2.16 11.65,-7.57 "/>
      </g>
      <g transform="matrix(1 0 0 1 50.13 -3.36)" id="Capa_1">
        <path style="stroke: none; stroke-width: 1; stroke-dasharray: none; stroke-linecap: butt; stroke-dashoffset: 0; stroke-linejoin: miter; stroke-miterlimit: 4; fill: rgb(255,255,255); fill-rule: nonzero; opacity: 1;" transform=" translate(-198.53, -65.71)" d="M 207.114 62.024 c 0.018 -0.153 0.054 -0.288 0.09 -0.414 c 0.018 -0.126 0.036 -0.252 0.054 -0.378 c 0.018 -0.126 0.036 -0.234 0.054 -0.333 c 0 -0.153 0 -0.316 0 -0.469 c 0 -0.153 -0.018 -0.297 -0.054 -0.422 c -0.018 -0.126 -0.036 -0.243 -0.054 -0.351 c -0.054 -0.117 -0.09 -0.225 -0.126 -0.324 c -0.054 -0.099 -0.108 -0.199 -0.18 -0.298 c -0.072 -0.108 -0.144 -0.198 -0.198 -0.27 c -0.108 -0.054 -0.18 -0.117 -0.288 -0.18 c -0.072 -0.063 -0.18 -0.117 -0.289 -0.162 c -0.072 -0.036 -0.18 -0.081 -0.287 -0.117 c -0.108 -0.036 -0.216 -0.054 -0.342 -0.09 c -0.234 -0.045 -0.486 -0.063 -0.738 -0.063 h -8.351 c -0.144 0 -0.289 0.009 -0.433 0.027 c -0.144 0.027 -0.287 0.045 -0.413 0.063 c -0.162 0.018 -0.306 0.045 -0.432 0.09 c -0.144 0.036 -0.27 0.072 -0.414 0.117 c -0.09 0.036 -0.198 0.081 -0.306 0.153 c -0.108 0.054 -0.198 0.108 -0.306 0.162 c -0.108 0.072 -0.198 0.144 -0.306 0.207 c -0.09 0.081 -0.198 0.153 -0.27 0.234 c -0.072 0.073 -0.18 0.145 -0.269 0.244 c -0.09 0.099 -0.162 0.198 -0.234 0.306 c -0.072 0.108 -0.163 0.234 -0.253 0.341 c -0.072 0.108 -0.144 0.225 -0.216 0.36 c -0.036 0.108 -0.108 0.226 -0.18 0.352 c -0.072 0.126 -0.108 0.252 -0.18 0.378 c -0.036 0.135 -0.09 0.27 -0.144 0.422 c -0.036 0.162 -0.09 0.306 -0.144 0.45 L 191.04 65.3 l -1.133 4.23 c -0.018 0.09 -0.018 0.198 -0.054 0.306 c -0.018 0.108 -0.036 0.206 -0.054 0.306 c -0.018 0.108 -0.054 0.225 -0.054 0.334 c 0 0.099 0 0.198 0 0.306 c 0 0.108 0 0.216 0 0.333 c 0.036 0.108 0.036 0.216 0.054 0.315 c 0.018 0.099 0.054 0.198 0.054 0.288 c 0.036 0.108 0.072 0.198 0.108 0.279 c 0.018 0.117 0.072 0.216 0.108 0.306 c 0.072 0.09 0.126 0.18 0.216 0.261 c 0.036 0.09 0.108 0.171 0.216 0.234 c 0.09 0.072 0.18 0.135 0.288 0.189 c 0.054 0.054 0.144 0.081 0.252 0.137 c 0.072 0.043 0.18 0.061 0.288 0.072 c 0.072 0.036 0.181 0.054 0.289 0.054 c 0.108 0.018 0.216 0.018 0.342 0.018 h 8.981 c 0.144 0 0.288 -0.018 0.432 -0.036 c 0.127 -0.018 0.253 -0.036 0.397 -0.047 c 0.126 -0.018 0.252 -0.043 0.378 -0.099 c 0.126 -0.045 0.252 -0.099 0.378 -0.162 c 0.162 -0.081 0.325 -0.189 0.523 -0.315 c 0.18 -0.126 0.342 -0.261 0.522 -0.423 c 0.072 -0.09 0.18 -0.198 0.27 -0.324 c 0.09 -0.126 0.198 -0.243 0.306 -0.369 c 0.072 -0.126 0.162 -0.252 0.252 -0.396 c 0.09 -0.126 0.162 -0.279 0.216 -0.432 c 0.054 -0.126 0.109 -0.252 0.181 -0.388 c 0.054 -0.135 0.108 -0.27 0.162 -0.414 c 0.054 -0.144 0.108 -0.279 0.162 -0.441 c 0.036 -0.153 0.09 -0.307 0.144 -0.469 l 0.955 -3.573 l 0.791 -2.925 C 207.06 62.312 207.096 62.168 207.114 62.024 z M 199.609 69.98 c -0.018 0.027 -0.036 0.081 -0.072 0.135 c -0.037 0.063 -0.055 0.117 -0.073 0.153 c -0.036 0.046 -0.072 0.091 -0.108 0.136 c -0.054 0.054 -0.108 0.09 -0.144 0.117 c -0.036 0.036 -0.09 0.09 -0.144 0.135 c -0.072 0.027 -0.108 0.063 -0.18 0.081 c -0.036 0.027 -0.072 0.045 -0.144 0.054 c -0.054 0.018 -0.108 0.018 -0.144 0.018 h -2.88 c -0.036 0 -0.072 0 -0.144 -0.018 c -0.036 -0.009 -0.072 -0.027 -0.126 -0.054 c -0.036 -0.018 -0.072 -0.045 -0.108 -0.081 c -0.054 -0.027 -0.09 -0.063 -0.126 -0.099 c -0.018 -0.027 -0.036 -0.054 -0.072 -0.108 c -0.036 -0.054 -0.036 -0.099 -0.054 -0.135 c 0 -0.046 -0.018 -0.091 -0.018 -0.144 c 0 -0.054 0 -0.09 0.018 -0.135 l 1.242 -4.635 l 1.025 -3.743 c 0.018 -0.054 0.054 -0.117 0.09 -0.198 c 0.036 -0.054 0.072 -0.126 0.108 -0.198 c 0.036 -0.063 0.072 -0.117 0.144 -0.189 c 0.054 -0.054 0.108 -0.108 0.162 -0.144 c 0.054 -0.036 0.09 -0.063 0.162 -0.108 c 0.073 -0.027 0.127 -0.063 0.181 -0.09 c 0.072 -0.018 0.108 -0.027 0.18 -0.045 c 0.072 -0.01 0.144 -0.019 0.216 -0.019 h 2.736 c 0.036 0 0.073 0.009 0.145 0.028 c 0.036 0.027 0.072 0.045 0.108 0.054 c 0.036 0.018 0.072 0.045 0.108 0.072 c 0.036 0.045 0.072 0.072 0.108 0.108 c 0.036 0.018 0.054 0.054 0.072 0.108 c 0.018 0.045 0.036 0.099 0.054 0.144 c 0 0.027 0 0.081 0 0.144 c 0 0.054 -0.018 0.108 -0.018 0.135 l -1.08 3.969 L 199.609 69.98 z" stroke-linecap="round"/>
      </g>
      <g transform="matrix(1 0 0 1 31.93 -3.33)" id="Capa_1">
        <path style="stroke: none; stroke-width: 1; stroke-dasharray: none; stroke-linecap: butt; stroke-dashoffset: 0; stroke-linejoin: miter; stroke-miterlimit: 4; fill: rgb(255,255,255); fill-rule: nonzero; opacity: 1;" transform=" translate(-180.33, -65.74)" d="M 189.33 59.55 c -0.036 -0.09 -0.054 -0.18 -0.09 -0.261 c -0.036 -0.1 -0.072 -0.172 -0.108 -0.226 c -0.072 -0.135 -0.216 -0.27 -0.36 -0.387 c -0.144 -0.108 -0.324 -0.198 -0.468 -0.27 c -0.181 -0.054 -0.397 -0.108 -0.648 -0.144 c -0.234 -0.045 -0.468 -0.063 -0.756 -0.063 h -11.519 l -1.746 6.426 l -2.359 8.665 h 5.347 l 1.782 -6.524 h 1.71 l 0.773 6.524 h 5.94 l -1.26 -6.542 c 0.108 0 0.216 -0.008 0.324 -0.018 c 0.09 -0.009 0.18 -0.018 0.288 -0.036 c 0.072 0 0.181 0 0.253 -0.027 c 0.09 -0.018 0.162 -0.045 0.252 -0.072 c 0.054 -0.009 0.144 -0.045 0.216 -0.072 c 0.072 -0.036 0.144 -0.072 0.216 -0.099 c 0.036 -0.036 0.108 -0.063 0.144 -0.108 c 0.072 -0.036 0.108 -0.081 0.162 -0.117 c 0.054 -0.063 0.108 -0.126 0.198 -0.198 c 0.072 -0.063 0.126 -0.135 0.162 -0.181 c 0.054 -0.063 0.09 -0.126 0.126 -0.207 c 0.036 -0.081 0.072 -0.153 0.108 -0.225 c 0.036 -0.054 0.054 -0.108 0.09 -0.171 c 0.018 -0.027 0.018 -0.036 0.018 -0.054 c 0.037 -0.09 0.072 -0.162 0.072 -0.243 c 0.036 -0.045 0.036 -0.126 0.072 -0.207 c 0.018 -0.072 0.036 -0.162 0.072 -0.234 l 0.828 -3.096 c 0.072 -0.225 0.108 -0.441 0.144 -0.648 c 0.036 -0.208 0.072 -0.388 0.072 -0.559 c 0 -0.09 0 -0.198 -0.018 -0.324 C 189.349 59.748 189.349 59.649 189.33 59.55 z M 180.097 60.684 h 3.294 c 0.036 0 0.072 0.009 0.126 0.009 c 0.036 0.009 0.072 0.018 0.108 0.018 c 0.036 0 0.072 0.009 0.108 0.027 c 0.036 0.027 0.054 0.045 0.072 0.054 c 0 0.027 0.036 0.054 0.054 0.081 c 0.018 0.036 0.036 0.054 0.036 0.09 c 0 0.027 0 0.072 -0.018 0.108 c 0 0.054 -0.018 0.108 -0.036 0.135 l -0.612 2.303 c -0.018 0.081 -0.036 0.135 -0.072 0.189 c 0 0.045 -0.036 0.09 -0.036 0.135 c 0 0.036 -0.036 0.081 -0.071 0.126 c -0.036 0.037 -0.036 0.064 -0.072 0.082 c 0 0.027 -0.055 0.063 -0.091 0.09 c -0.054 0.036 -0.09 0.072 -0.126 0.09 c -0.036 0.009 -0.054 0.018 -0.108 0.027 c -0.036 0.009 -0.108 0.009 -0.144 0.009 h -3.384 L 180.097 60.684 z" stroke-linecap="round"/>
      </g>
      <g transform="matrix(1 0 0 1 -56.16 0)" id="Capa_1">
        <path style="stroke: none; stroke-width: 1; stroke-dasharray: none; stroke-linecap: butt; stroke-dashoffset: 0; stroke-linejoin: miter; stroke-miterlimit: 4; fill: rgb(255,255,255); fill-rule: nonzero; opacity: 1;" transform=" translate(-92.24, -69.07)" d="M 102.414 47.464 l -10.178 -4.5 L 67.2 54.006 l 0.09 0.577 c -0.027 -0.027 -0.063 -0.036 -0.09 -0.054 c 0.027 0.018 0.063 0.036 0.09 0.054 l 3.869 24.46 l 9.369 7.172 l 11.708 8.964 l 21.067 -16.136 l 3.969 -25.037 L 102.414 47.464 z M 92.776 83.049 V 67.515 l 13.49 -7.11 L 105.239 74.3 L 92.776 83.049 z M 91.704 83.011 l -11.663 -8.845 l -0.944 -0.719 l 0.09 1.187 l 0.675 9.782 l -7.803 -5.976 l -3.662 -23.201 l 3.087 1.629 c 2.592 1.395 5.183 2.772 7.758 4.176 c 2.636 1.349 5.274 2.717 7.902 4.076 l 4.562 2.395 V 83.011 z M 92.236 66.587 L 68.883 54.286 l 23.29 -10.269 l 8.486 3.744 l -8.667 4.508 l -0.981 0.523 l 0.99 0.45 l 13.662 6.273 L 92.236 66.587 z" stroke-linecap="round"/>
      </g>
    </g>
  </g>
  <g transform="matrix(0.476667, 0, 0, 0.476667, 174.504242, -89.203506)">
    <ellipse style="stroke: rgb(255, 248, 248); fill: rgb(255, 255, 255);" cx="149.146" cy="263.34" rx="4" ry="4"/>
    <ellipse style="stroke: rgb(255, 248, 248); fill: rgb(255, 255, 255);" cx="171.291" cy="236.748" rx="4" ry="4"/>
    <ellipse style="stroke: rgb(255, 248, 248); fill: rgb(255, 255, 255);" cx="197.972" cy="252.757" rx="4" ry="4"/>
    <ellipse style="stroke: rgb(255, 248, 248); fill: rgb(255, 255, 255);" cx="234.792" cy="220.207" rx="4" ry="4"/>
    <polyline style="fill-opacity: 0; stroke: rgb(255, 248, 248); fill: rgb(255, 255, 255);" points="149.308 263.089 171.347 236.616 198.098 252.833 234.69 220.26"/>
    <ellipse style="fill-opacity: 0; stroke-width: 3px; stroke: rgb(255, 248, 248); fill: rgb(255, 255, 255);" cx="198.307" cy="251.243" rx="15" ry="15"/>
    <line style="stroke-width: 5px; stroke: rgb(255, 248, 248); fill: rgb(255, 255, 255);" x1="208.928" y1="263.35" x2="218.397" y2="272.819"/>
  </g>
  <text style="fill: rgb(255, 255, 255); font-family: Verdana; font-size: 9px; font-weight: 700; white-space: pre;" x="239.706" y="54.011">CONSUMO</text>
</svg>